# xmcd
#
# Track frame offsets: 
#        150
#        72839
#        100047
#        139686
#        229231
#        256325
#        268980
#        298245
#
# Disc length: 4179 seconds
#
# Revision: 0
# Processed by: cddbd v1.5.2PL0 Copyright (c) Steve Scherf et al.
# Submitted via: ExactAudioCopy v0.99pb3
#
DISCID=7a105108
DTITLE=Sperm - Shh! (+Bonus Tracks)
DYEAR=1970
DGENRE=Electronic
TTITLE0=Heinäsirkat I
TTITLE1=Korvapoliklinikka Hesperia
TTITLE2=Jazz Jazz
TTITLE3=Dodekafoninen Talvisota
TTITLE4=Suite 71 - Bra Bonata
TTITLE5=Suite 71 - Prem
TTITLE6=Suite 71 - Aktio Bra
TTITLE7=Suite 71 - Con Prix
EXTD=
EXTT0=
EXTT1=
EXTT2=
EXTT3=
EXTT4=
EXTT5=
EXTT6=
EXTT7=
PLAYORDER=
